<svg style="object-fit:cover" id="my-svg" version="1" baseProfile="full" width="100%" height="100%" viewBox="0 0 1280 601" xmlns="http://www.w3.org/2000/svg"><rect width="1280" height="601" fill="rgba(0,0,0,1)"/><defs><linearGradient id="linear-gradient" x1="0" x2="1" y1="0" y2="1"><stop offset="0%" stop-color="#c81d1190"/><stop offset="100%" stop-color="#1c39bb90"/></linearGradient></defs><path transform="scale(1, 1)" style="transform-origin:center" d="M 0,601 V 0,301 C 135.5238095238095,354.8571428571429 271.047619047619,408.7142857142857 372,399 C 472.952380952381,389.2857142857143 539.3333333333334,316 632,296 C 724.6666666666666,276 843.6190476190477,309.2857142857143 956,319 C 1068.3809523809523,328.7142857142857 1174.1904761904761,314.8571428571429 1280,301 C 1280,301 1280,601 1280,601 Z" stroke="none" stroke-width="0" fill="url(#linear-gradient)" class="transition-all duration-300 ease-in-out delay-150"/><defs><linearGradient id="linear-gradient" x1="0" x2="1" y1="0" y2="1"><stop offset="0%" stop-color="#c81d11ff"/><stop offset="100%" stop-color="#1c39bbff"/></linearGradient></defs><path transform="scale(1, 1)" style="transform-origin:center" d="M 0,601 V 0,451 C 111.95238095238096,415.5 223.90476190476193,380 337,375 C 450.0952380952381,370 564.3333333333333,395.5 664,398 C 763.6666666666667,400.5 848.7619047619048,380 949,385 C 1049.2380952380952,390 1164.6190476190477,420.5 1280,451 C 1280,451 1280,601 1280,601 Z" stroke="none" stroke-width="0" fill="url(#linear-gradient)" class="transition-all duration-300 ease-in-out delay-150"/></svg>